<svg width="87" height="84" viewBox="0 0 87 84" fill="none" xmlns="http://www.w3.org/2000/svg">
<path d="M43.4999 0L43.5084 0.0157736L43.5169 0H43.4999ZM43.8652 0C44.5128 0.240667 46.236 0.956534 48.4191 2.47645C51.1814 4.39956 54.6249 7.59364 57.3741 12.6977C61.8359 20.9815 62.6719 28.1624 62.82 30.033C63.9864 29.027 68.6884 25.2378 73.4063 25.2378C84.2813 25.2378 87 30.2854 87 30.2854C87 30.2854 86.9957 0.171616 43.8652 0ZM42.4124 0.00788678C0.00815617 0.51254 0 30.2855 0 30.2855C0 30.2855 2.71874 25.238 13.5937 25.238C20.0825 25.238 23.1202 28.4273 24.0949 29.7333C24.2527 27.7967 25.113 20.6659 29.5408 12.4455C32.29 7.34145 35.7335 4.13955 38.4958 2.21643C40.1373 1.07355 41.5364 0.383954 42.4124 0.00788678ZM43.3385 0.457418C42.7368 0.678268 41.1105 1.34601 38.9885 2.82345C36.3132 4.68599 32.9599 7.79326 30.2716 12.7845C25.6106 21.438 24.972 28.7741 24.8937 30.033C26.684 29.0273 34.0643 25.2378 43.5002 25.2378C52.7728 25.2378 60.0473 28.8963 61.9961 29.9777C61.8389 28.0632 60.9966 21.1188 56.6434 13.0369C53.9551 8.04589 50.6103 4.93837 47.935 3.07583C45.2598 1.21329 43.2876 0.607282 43.2876 0.607282L43.3385 0.457418ZM43.3215 25.7809C42.927 25.7825 42.5349 25.7907 42.1405 25.8046V75.7121C42.1405 78.4989 43.0904 80.7422 44.6638 82.203C46.2373 83.6638 48.4336 84.2777 50.5602 83.8829C54.8131 83.0933 58.453 78.5865 58.453 70.6646C58.4556 70.4974 58.4223 70.3314 58.3551 70.1762C58.2879 70.021 58.1882 69.8798 58.0617 69.7607C57.9352 69.6417 57.7845 69.5471 57.6183 69.4826C57.4521 69.418 57.2738 69.3848 57.0936 69.3848C56.9135 69.3848 56.7351 69.418 56.5689 69.4826C56.4027 69.5471 56.252 69.6417 56.1255 69.7607C55.9991 69.8798 55.8993 70.021 55.8322 70.1762C55.765 70.3314 55.7317 70.4974 55.7343 70.6646C55.7343 77.8854 52.5773 80.9419 50.0333 81.4144C48.7613 81.6505 42.4124 78.1736 46.5838 80.4127C45.6083 79.5073 44.8591 77.9731 44.8591 75.7122V25.8047C44.3489 25.7863 43.8323 25.7789 43.3215 25.7809Z" fill="#DAD8D8"/>
</svg>
